<?xml version="1.0" ?><!DOCTYPE svg  PUBLIC '-//W3C//DTD SVG 1.1//EN'  'http://www.w3.org/Graphics/SVG/1.1/DTD/svg11.dtd'><svg height="100%" style="fill-rule:evenodd;clip-rule:evenodd;stroke-linejoin:round;stroke-miterlimit:2;" version="1.1" viewBox="0 0 32 32" width="100%" xml:space="preserve" xmlns="http://www.w3.org/2000/svg" xmlns:serif="http://www.serif.com/" xmlns:xlink="http://www.w3.org/1999/xlink"><path d="M7.95,16.027c-0.133,-0.414 -0.518,-0.696 -0.952,-0.696c-0.435,0 -0.82,0.282 -0.953,0.696l-0.957,2.99c0,0 -3.086,0 -3.086,0c-0.432,0 -0.815,0.278 -0.95,0.688c-0.135,0.41 0.009,0.861 0.356,1.117l2.51,1.852c0,0 -0.96,3.003 -0.96,3.003c-0.133,0.413 0.017,0.864 0.369,1.117c0.352,0.253 0.828,0.249 1.177,-0.008l2.494,-1.84c-0,-0 2.493,1.84 2.493,1.84c0.349,0.257 0.825,0.261 1.177,0.008c0.352,-0.253 0.502,-0.704 0.37,-1.117l-0.961,-3.003c-0,0 2.51,-1.852 2.51,-1.852c0.348,-0.256 0.491,-0.707 0.356,-1.117c-0.135,-0.41 -0.518,-0.688 -0.95,-0.688l-3.086,0c-0,0 -0.957,-2.99 -0.957,-2.99Z"/><path d="M16.96,5.018c-0.133,-0.415 -0.518,-0.696 -0.953,-0.696c-0.435,-0 -0.821,0.281 -0.953,0.696l-0.957,3.001c0,-0 -3.083,-0 -3.083,-0c-0.432,-0 -0.815,0.276 -0.95,0.686c-0.135,0.41 0.008,0.86 0.355,1.117l2.511,1.859c-0,0 -0.962,3.015 -0.962,3.015c-0.131,0.414 0.018,0.865 0.371,1.117c0.353,0.253 0.828,0.249 1.177,-0.009l2.491,-1.844c-0,-0 2.491,1.844 2.491,1.844c0.348,0.258 0.824,0.262 1.177,0.009c0.353,-0.252 0.502,-0.703 0.371,-1.117l-0.962,-3.015c0,0 2.511,-1.859 2.511,-1.859c0.347,-0.257 0.49,-0.707 0.355,-1.117c-0.136,-0.41 -0.518,-0.686 -0.95,-0.686l-3.084,-0c0,-0 -0.956,-3.001 -0.956,-3.001Z"/><path d="M25.933,16.026c-0.132,-0.414 -0.517,-0.695 -0.952,-0.695c-0.434,0 -0.819,0.281 -0.952,0.695l-0.961,2.991c0,0 -3.102,0 -3.102,0c-0.433,0 -0.816,0.278 -0.951,0.689c-0.134,0.41 0.01,0.861 0.358,1.117l2.52,1.852c0,-0 -0.964,3 -0.964,3c-0.132,0.413 0.016,0.864 0.368,1.118c0.352,0.253 0.827,0.251 1.177,-0.006l2.507,-1.843c0,0 2.508,1.843 2.508,1.843c0.35,0.257 0.825,0.259 1.177,0.006c0.351,-0.254 0.5,-0.705 0.367,-1.118l-0.964,-3c0,-0 2.52,-1.852 2.52,-1.852c0.349,-0.256 0.493,-0.707 0.358,-1.117c-0.134,-0.411 -0.518,-0.689 -0.95,-0.689l-3.102,0c-0,0 -0.962,-2.991 -0.962,-2.991Z"/></svg>