<?xml version="1.0" ?><svg data-name="Layer 1" id="Layer_1" viewBox="0 0 32 32" xmlns="http://www.w3.org/2000/svg"><title/><path d="M30.5,8H26.81l-2-4H17.19l-2,4H8V6H3V8H1.5A1.5,1.5,0,0,0,0,9.5v17A1.5,1.5,0,0,0,1.5,28h29A1.5,1.5,0,0,0,32,26.5V9.5A1.5,1.5,0,0,0,30.5,8ZM4,7H7V8H4V7ZM31,26.5a0.5,0.5,0,0,1-.5.5H1.5A0.5,0.5,0,0,1,1,26.5V9.5A0.5,0.5,0,0,1,1.5,9H15.81l2-4h6.38l2,4H30.5a0.5,0.5,0,0,1,.5.5v17Z"/><rect height="16" width="1" x="7" y="10"/><path d="M21,10a8,8,0,1,0,8,8A8,8,0,0,0,21,10Zm0,15a7,7,0,1,1,7-7A7,7,0,0,1,21,25Z"/><path d="M21,13a5,5,0,1,0,5,5A5,5,0,0,0,21,13Zm0,9a4,4,0,1,1,4-4A4,4,0,0,1,21,22Z"/><circle cx="13" cy="11" r="1"/></svg>